<svg version="1.1" id="Layer_1" xmlns="http://www.w3.org/2000/svg" xmlns:xlink="http://www.w3.org/1999/xlink" x="0px" y="0px"
	 width="100%" viewBox="0 0 512 512" fill="black"  xml:space="preserve">

<path  opacity="1.000000" stroke="none"
	d="
M1.000000,245.468414
	C30.794281,207.463226 67.311760,176.419174 100.530426,142.192703
	C133.953339,107.755783 168.207092,74.122040 202.274902,40.315872
	C214.554184,28.130909 229.479004,21.342392 246.773743,18.819782
	C262.196930,16.570156 276.691193,19.290567 290.388275,25.445486
	C298.047333,28.887173 305.233673,34.267982 311.333252,40.127968
	C330.289276,58.339417 348.624084,77.197487 368.000000,96.606178
	C368.000000,85.593620 368.064423,75.546242 367.983276,65.500038
	C367.887756,53.673191 374.141785,45.383297 383.838867,40.261272
	C392.703766,35.578815 402.138275,35.478588 411.556885,40.781067
	C422.482422,46.931938 427.107330,55.906929 427.044495,68.111542
	C426.902863,95.607910 427.077484,123.105995 426.907227,150.602036
	C426.884583,154.256134 428.027710,156.667206 430.563232,159.183380
	C454.811981,183.246811 479.071442,207.303650 502.952271,231.729538
	C506.980011,235.849228 509.214661,241.722015 512.638916,246.892410
	C513.000000,251.689255 513.000000,256.378510 513.000000,261.533875
	C509.420013,272.218140 503.476013,280.041656 492.454468,283.120972
	C481.140564,286.281982 470.968781,284.362213 462.642395,276.054260
	C398.362152,211.916260 334.136597,147.723190 270.041901,83.399864
	C262.364441,75.695007 251.635635,75.700806 244.004883,83.358315
	C180.260956,147.325623 116.229126,211.006500 52.597008,275.084473
	C37.549255,290.237671 12.137725,286.649261 3.014411,267.194305
	C2.675689,266.471985 2.140543,265.841766 1.348465,265.084320
	C1.000000,258.645599 1.000000,252.291214 1.000000,245.468414
z"/>
<path opacity="1.000000" stroke="none"
	d="
M332.000000,496.000000
	C322.522644,496.000000 313.545288,496.000000 304.169739,496.000000
	C304.169739,452.373718 304.169739,408.967804 304.169739,365.281677
	C272.700226,365.281677 241.628677,365.281677 210.156372,365.281677
	C210.156372,408.639709 210.156372,452.045593 210.156372,496.000000
	C208.163559,496.000000 206.562073,496.000000 204.960602,496.000000
	C178.127991,496.000000 151.292908,496.215424 124.463890,495.905060
	C111.889175,495.759583 100.528236,491.726196 90.717232,483.337616
	C79.296898,473.573029 72.710716,461.585266 72.019447,446.528290
	C71.579681,436.949493 71.083908,427.362793 71.045883,417.777954
	C70.922928,386.779297 71.142868,355.778717 70.907097,324.781372
	C70.842026,316.227295 73.435211,309.754150 79.698395,303.541504
	C135.428238,248.261139 190.841904,192.662033 246.349792,137.157928
	C252.264297,131.243820 261.750977,131.255753 267.682312,137.187195
	C324.130554,193.636398 380.528687,250.135956 437.122162,306.439178
	C441.390289,310.685425 442.922607,315.422180 442.938110,320.824402
	C443.052551,360.656311 443.189178,400.490112 442.901794,440.320282
	C442.794952,455.129547 438.280975,468.830292 427.707184,479.603516
	C419.549530,487.915039 409.642548,494.320923 397.723480,494.830872
	C376.005402,495.760040 354.243561,495.666687 332.000000,496.000000
z"/>
</svg>
