<svg xmlns="http://www.w3.org/2000/svg" width="24" height="24" viewBox="0 0 512 512" style="shape-rendering:geometricPrecision;text-rendering:geometricPrecision;image-rendering:optimizeQuality;fill-rule:evenodd;clip-rule:evenodd"><path style="opacity:.957" d="M45.5-.5h2a4847 4847 0 0 0 91 31.5 2406 2406 0 0 1 41 41.5 1748 1748 0 0 1-11 31.5l86.5 86.5 50-50Q286.673 74.519 334.5 26q24.78-21.391 57-26.5h29q26.921 4.953 50 20a6299 6299 0 0 1-66.5 67q-1 1 0 2l19 19a6582 6582 0 0 1 68.5-68q14.48 24.462 20 52v26q-10.608 59.878-66 85.5-37.048 14.063-74.5 1.5L341.5 234 491 383.5q15.45 17.402 20.5 40v24q-12.5 51.5-64 64h-24q-21.832-4.917-39-19.5L234 341.5l-28 28a530 530 0 0 0 4 23q5.571 66.6-49.5 103.5-22.491 13.082-48 15.5h-15q-30.847-3.41-57-20.5a2802 2802 0 0 1 62.5-63.5q1-1 0-2l-19-19a5835 5835 0 0 1-64.5 64q-14.64-23.763-20-51v-28q15.277-73.03 88-90.5 26.581-4.321 52 4.5a3639 3639 0 0 0 51-50.5L104 168.5a1748 1748 0 0 1-31.5 11 2406 2406 0 0 1-41.5-41 4847 4847 0 0 0-31.5-91v-2Q23 23 45.5-.5m349 31q10.013-.25 20 .5L360 85.5q-1 1.5 0 3a5645 5645 0 0 0 63.5 63l56-55q2.883 60.98-55 80.5-16.393 4.227-33 1a247 247 0 0 1-29-10L168 362.5q5.835 12.986 10 27 7.798 59.16-45.5 85.5-17.526 7.078-36 4l52-52a5916 5916 0 0 0-65-64.5 3860 3860 0 0 0-52.5 52q-2.732-62.3 56.5-81.5 14.91-3.936 30-1 16.075 3.819 31 10L342 148.5q-1.458-8.866-6-17-17.959-62.66 38.5-94.5 9.929-4.06 20-6.5m-341 5a2633 2633 0 0 1 67 22.5L143 80.5a361 361 0 0 1-9 29q-1 2 0 4a13781 13781 0 0 1 98.5 99q-9.536 11.304-21 19.5l-98-98a195 195 0 0 0-32 9.5 763 763 0 0 1-23.5-23 7687 7687 0 0 1-22.5-66q9.033-9.53 18-19m265 221a22700 22700 0 0 1 127 126.5l-19 19q-1 1-2 0l-104-104q-1.5-1-3 0L298 317.5q-1 1.5 0 3l104 104q1 1 0 2l-19 19L256.5 319a5473 5473 0 0 0 62-62.5m148 149q7.332 4.58 10.5 13 10.85 33.951-17.5 55.5-28.717 15.101-53.5-5.5-1-1 0-2a5212 5212 0 0 0 60.5-61"/></svg>
