<svg xmlns="http://www.w3.org/2000/svg" width="24" height="24" viewBox="0 0 512 512" style="shape-rendering:geometricPrecision;text-rendering:geometricPrecision;image-rendering:optimizeQuality;fill-rule:evenodd;clip-rule:evenodd"><path style="opacity:.956" d="M511.5 455.5v14q-1.874 2.454-5 3.5-245 1-490 0-12.021-3.282-17-14.5v-417q1.874-2.454 5-3.5a30.5 30.5 0 0 1 11 0q4.91 1.41 5.5 6.5l1 403q.561 1.375 1.5 2.5a58772 58772 0 0 0 484 2q2.776 1.034 4 3.5"/><path style="opacity:.988" d="M200.5 79.5q44.503-.25 89 .5 3.25 1.25 4.5 4.5 1 171 0 342-1.25 3.25-4.5 4.5a1980 1980 0 0 1-89 0 11.5 11.5 0 0 1-4.5-3.5 29570 29570 0 0 1 0-344q2.096-2.355 4.5-4"/><path style="opacity:.987" d="M68.5 135.5q43.503-.25 87 .5 4.25 1.25 5.5 5.5 1 142 0 284-.75 4.75-5.5 5.5-44 1-88 0a11.5 11.5 0 0 1-4.5-3.5q-1-144 0-288 2.25-2.953 5.5-4"/><path style="opacity:.984" d="M335.5 240.5q42.503-.25 85 .5 4.163.099 6.5 3.5 1 91.5 0 183a11.5 11.5 0 0 1-4.5 3.5q-44 1-88 0-2.744-.41-4.5-2.5a4177 4177 0 0 1-1-182q1.67-4.922 6.5-6"/></svg>
