<svg xmlns="http://www.w3.org/2000/svg" width="24" height="24" viewBox="0 0 512 512" style="shape-rendering:geometricPrecision;text-rendering:geometricPrecision;image-rendering:optimizeQuality;fill-rule:evenodd;clip-rule:evenodd"><path style="opacity:.97" d="M234.5-.5h38q110.217 14.98 153 117.5 36.66 126.15-63.5 210.5-16.422 21.906-16.5 49.5 1.45 37.224 1 74.5h-31q-2.529 48.023-49 60h-22q-46.471-11.977-49-60h-31q-.458-37.03 1-74 .043-27.857-16.5-50a297.6 297.6 0 0 1-40-42q-49.13-71.78-27-156Q112.354 34.646 207.5 5a649 649 0 0 1 27-5.5m18 30q108.864 3.775 145.5 106 25.958 99.872-53.5 165-23.418 24.337-28.5 58a524 524 0 0 1-45.5 1q-.25-53.002.5-106 42.604-14.23 44.5-59h-31q-1.993 26.993-29 29-27.007-2.007-29-29h-31q1.896 44.77 44.5 59 .75 52.998.5 106a524 524 0 0 1-45.5-1q-7.159-43.097-41.5-69.5-71.974-73.373-34.5-169.5 40.358-84.06 133.5-90m-57 360h120v32h-120zm31 62h58q-1.993 26.993-29 29-27.007-2.007-29-29"/></svg>
