<svg xmlns="http://www.w3.org/2000/svg" viewBox="0 0 512 512" xml:space="preserve"><path fill="none" d="M513 339c0 29.02 0 58.042-.358 87.427-3.178-10.307-14.718-16.282-25.78-12.797-9.801 3.088-14.49 9.892-14.811 22.315-.244 9.452-4.372 17.099-10.416 23.863-9.004 10.078-21.035 13.115-33.85 13.13-102.314.112-204.629.1-306.944.018-14.247-.012-28.493-.689-42.741-.933-9.43-.161-17.104-4.318-23.878-10.356-10.091-8.996-13.143-21.024-13.157-33.837-.116-102.982-.102-205.963-.02-308.945.01-13.58.71-27.16.925-40.742.152-9.639 4.47-17.393 10.682-24.246 8.95-9.873 20.845-12.819 33.475-12.833 103.48-.114 206.962-.1 310.444-.02 13.08.01 26.16.72 39.242.924 9.639.15 17.409 4.425 24.26 10.652 9.853 8.954 12.845 20.824 12.864 33.463.123 82.652.062 165.303.064 247.955 0 8.843 4.536 15.548 12.738 17.91 9.759 2.811 21.218 1.8 27.261-12.948M85.957 256.54c6.788 12.419 17.316 20.225 31.333 20.278 92.49.352 184.982.073 277.474.27 19.673.041 38.787-18.613 38.304-38.548-.347-14.324.073-28.665-.16-42.993-.064-3.975-.835-8.052-1.976-11.875-4.735-15.867-21.102-26.773-36.585-26.747-91.492.152-182.984.205-274.475-.024-20.683-.052-39.414 18.313-38.93 38.927a815 815 0 0 1-.04 39.993c-.185 7.216 1.09 13.863 5.055 20.72M267.5 80c-55.831 0-111.663.103-167.494-.094-10.237-.036-18.782 8.84-19.22 18.96-.563 12.975 9.52 21.226 18.97 21.214 104.829-.127 209.659-.13 314.488.002 9.874.012 18.837-8.81 18.999-19.703.176-11.905-9.368-20.524-19.248-20.48-48.498.222-96.997.101-146.495.101m-79.535 243.446c-9.149-8.13-20.294-10.245-31.998-10.414a1008 1008 0 0 0-31.478.027c-4.07.068-8.19.486-12.179 1.282-17.775 3.547-32.484 20.928-31.455 40.433.744 14.119.108 28.308.157 42.466.037 10.34 4.783 18.927 11.79 25.762 7.859 7.668 17.762 11.388 29.119 11.076 12.483-.343 24.985.091 37.472-.168 4.48-.093 8.956-1.127 13.406-1.888 15.844-2.712 28.79-21.84 28.305-36.098-.476-13.975-.435-27.99-.004-41.967.374-12.111-4.595-21.6-13.135-30.511M322.5 354c-20.832 0-41.668.219-62.495-.093-10.241-.154-18.781 8.838-19.22 18.96-.562 12.974 9.52 21.248 18.97 21.216 51.497-.175 102.995-.18 154.491.003 9.742.034 19.06-8.683 19-20.213-.06-11.24-9.23-20.068-19.252-19.974-30.163.28-60.33.101-91.494.101"/><path d="M513 338.531c-6.043 15.218-17.502 16.228-27.26 13.418-8.203-2.363-12.738-9.068-12.739-17.91-.002-82.653.059-165.304-.064-247.956-.019-12.64-3.011-24.509-12.864-33.463-6.851-6.227-14.621-10.502-24.26-10.652-13.083-.204-26.161-.914-39.242-.924-103.482-.08-206.963-.094-310.444.02-12.63.014-24.525 2.96-33.475 12.833-6.212 6.853-10.53 14.607-10.682 24.246-.215 13.583-.915 27.161-.926 40.742-.08 102.982-.095 205.963.02 308.945.015 12.813 3.067 24.84 13.158 33.837 6.774 6.038 14.448 10.195 23.878 10.356 14.248.244 28.494.921 42.741.933 102.315.083 204.63.094 306.945-.019 12.814-.014 24.845-3.051 33.849-13.13 6.044-6.763 10.172-14.41 10.416-23.862.32-12.423 5.01-19.227 14.811-22.315 11.062-3.485 22.602 2.49 25.78 13.266.358 5.792.358 11.48-.032 17.778-.474 2.26-.271 3.987-.688 5.55-7.878 29.579-25.842 49.918-55.129 59.723-3.84 1.286-7.858 2.048-11.793 3.053-125.02 0-250.042 0-375.673-.39-2.26-.475-3.988-.271-5.55-.688-29.58-7.878-49.919-25.842-59.724-55.129C2.767 452.953 2.005 448.935 1 445c0-125.02 0-250.042.39-375.673.474-2.26.271-3.988.688-5.55C9.956 34.196 27.92 13.857 57.206 4.052 61.048 2.767 65.065 2.005 69 1c125.02 0 250.042 0 375.673.39 2.26.474 3.988.271 5.55.688 29.58 7.878 49.919 25.842 59.724 55.129 1.286 3.84 2.048 7.858 3.053 11.793z"/><path fill="none" d="M68.531 1c-3.466 1.005-7.483 1.767-11.325 3.053C27.92 13.858 9.956 34.197 2.078 63.776c-.417 1.563-.214 3.29-.688 5.082C1 46.406 1 23.813 1 1zM513 68.531c-1.005-3.466-1.767-7.483-3.053-11.324-9.805-29.287-30.144-47.251-59.723-55.13-1.563-.416-3.29-.213-5.082-.687C467.594 1 490.187 1 513 1zM1 445.469c1.005 3.466 1.767 7.483 3.053 11.324 9.805 29.287 30.144 47.251 59.723 55.13 1.563.416 3.29.212 5.082.687C46.406 513 23.813 513 1 513zM445.469 513c3.466-1.005 7.483-1.767 11.324-3.053 29.287-9.805 47.251-30.144 55.13-59.723.416-1.563.213-3.29.687-5.082.39 22.452.39 45.045.39 67.858z"/><path d="M85.703 256.25c-3.711-6.566-4.986-13.213-4.8-20.43.341-13.323.35-26.667.038-39.992-.483-20.614 18.248-38.979 38.93-38.927 91.492.229 182.984.176 274.476.024 15.483-.026 31.85 10.88 36.585 26.747 1.141 3.823 1.912 7.9 1.976 11.875.233 14.328-.187 28.669.16 42.993.483 19.935-18.631 38.59-38.304 38.547-92.492-.196-184.984.083-277.474-.269-14.017-.053-24.545-7.86-31.587-20.568M322.5 236h70.21v-38.713H121.29V236zM268 80c48.998 0 97.497.12 145.995-.1 9.88-.045 19.424 8.574 19.248 20.479-.162 10.893-9.125 19.715-18.999 19.703-104.83-.132-209.66-.13-314.489-.002-9.45.012-19.532-8.239-18.97-21.215.439-10.12 8.984-18.995 19.221-18.959C155.836 80.103 211.669 80 268 80m-79.784 243.712c8.289 8.645 13.258 18.134 12.884 30.245-.43 13.978-.472 27.992.004 41.967.485 14.257-12.461 33.386-28.305 36.098-4.45.761-8.925 1.795-13.406 1.888-12.487.259-24.99-.175-37.472.168-11.357.312-21.26-3.408-29.12-11.076-7.006-6.835-11.752-15.422-11.789-25.762-.05-14.158.587-28.347-.157-42.466-1.03-19.505 13.68-36.886 31.455-40.433a68.4 68.4 0 0 1 12.179-1.282c10.49-.176 20.987-.179 31.478-.027 11.704.17 22.85 2.285 32.249 10.68M142.5 354h-21.213v38.713h39.426V354zm180.5 0c30.665 0 60.831.18 90.994-.101 10.021-.094 19.193 8.734 19.252 19.974.06 11.53-9.258 20.247-19 20.213-51.496-.183-102.994-.178-154.49-.003-9.452.032-19.533-8.242-18.97-21.216.438-10.122 8.978-19.114 19.219-18.96 20.827.312 41.663.093 62.995.093"/><path fill="none" d="M322 236H121.29v-38.713h271.42V236zM143 354h17.713v38.713h-39.426V354z"/></svg>
