<svg xmlns="http://www.w3.org/2000/svg" viewBox="0 0 512 512" width="24" height="24" style="shape-rendering:geometricPrecision;text-rendering:geometricPrecision;image-rendering:optimizeQuality;fill-rule:evenodd;clip-rule:evenodd"><path style="opacity:.984" d="M511.5 69.5v12a68340 68340 0 0 1-62.5 272q-2.648 4.46-7.5 6.5-40.497.75-81 .5v60q71.002-.25 142 .5 6.278 2.532 9 8.5v12q-2.722 5.968-9 8.5a60979 60979 0 0 1-494 0q-6.277-2.532-9-8.5v-12q2.723-5.968 9-8.5 40.997-.75 82-.5v-60q-41.003.25-82-.5-6.277-2.532-9-8.5v-12A62904 62904 0 0 0 61 69.5q2.25-6.25 8.5-8.5 96-1 192 0 12.876 7.016 8.5 21.5a96544 96544 0 0 1-60 269q-2.25 6.25-8.5 8.5-40.497.75-81 .5v60h210v-60q-40.503.25-81-.5-12.876-7.017-8.5-21.5a26566 26566 0 0 1 61-271q2.647-4.46 7.5-6.5a9312 9312 0 0 1 193 0q6.278 2.532 9 8.5m-424 21q29.504-.25 59 .5l-14 59a561 561 0 0 1-58-.5q7.215-29.355 13-59m90 0q29.504-.25 59 .5l-14 59a841 841 0 0 1-58 0 851 851 0 0 0 13-59.5m150 0q29.504-.25 59 .5l-14 59a841 841 0 0 1-58 0 851 851 0 0 0 13-59.5m90 0q30.005-.25 60 .5a8977 8977 0 0 0-14 58.5 581 581 0 0 1-59 .5 851 851 0 0 0 13-59.5m-350 90q29.504-.25 59 .5l-14 59q-28.996.75-58 .5zm90 0q29.504-.25 59 .5l-14 59a841 841 0 0 1-58 0 851 851 0 0 0 13-59.5m150 0q29.504-.25 59 .5l-14 59a841 841 0 0 1-58 0 851 851 0 0 0 13-59.5m90 0h59l-13 60q-29.504.25-59-.5a851 851 0 0 0 13-59.5m-350 90q29.504-.25 59 .5l-14 59a870 870 0 0 1-59 0 3155 3155 0 0 0 14-59.5m90 0q29.504-.25 59 .5l-14 59a841 841 0 0 1-58 0 851 851 0 0 0 13-59.5m150 0q29.504-.25 59 .5l-14 59a841 841 0 0 1-58 0 851 851 0 0 0 13-59.5m90 0q29.517-.5 59 1a1253 1253 0 0 0-13 59q-29.504.25-59-.5a851 851 0 0 0 13-59.5"/></svg>
