<svg xmlns="http://www.w3.org/2000/svg" width="24" height="24" viewBox="0 0 512 512" style="shape-rendering:geometricPrecision;text-rendering:geometricPrecision;image-rendering:optimizeQuality;fill-rule:evenodd;clip-rule:evenodd"><path style="opacity:.991" d="M511.5 86.5v280q-10.817 38.67-51 41-1.91 53.407-55 58-53.046-4.55-55-58h-190q-1.91 53.407-55 58-53.046-4.55-55-58-40.185-2.33-51-41v-280q8.9-32.648 42-40.5a45794 45794 0 0 1 428 0q33.1 7.852 42 40.5m-460-11q204-.25 408 .5 19.75 1.75 21.5 21.5.75 96.998.5 194h-452q-.25-97.002.5-194 2.016-19.765 21.5-22m41 62h143v94h-143zm-63 184h452a303 303 0 0 1-1.5 40q-3.25 11.25-14.5 14.5-104.955 1.736-210 1.5-105.045.236-210-1.5-11.25-3.25-14.5-14.5a303 303 0 0 1-1.5-40m52 86h48q-1.951 31.483-33 25.5-15.375-7.987-15-25.5m300 0h48q-1.952 31.483-33 25.5-15.376-7.987-15-25.5"/><path style="opacity:.967" d="M72.5 106.5q91.502-.25 183 .5 8.25 2.25 10.5 10.5 1 67 0 134-3.547 8.553-12.5 10.5-89.5 1-179 0-9.587-2.086-12.5-11.5-1-66 0-132 2.391-8.632 10.5-12m20 31v94h143v-94z"/><path style="opacity:.961" d="M311.5 127.5q11.196-.779 16.5 9a1143 1143 0 0 1 2 66q7.21 15.736 22.5 7.5a36 36 0 0 0 3.5-4.5 9052 9052 0 0 0 3-45q10.5-31.144 43.5-33 37.681 2.935 44.5 40 1 32.5 0 65-6.84 16.656-23.5 9.5-4.353-3.36-6.5-8.5l-1-63q-6.487-16.995-22.5-8.5a11.5 11.5 0 0 0-3.5 4.5 415 415 0 0 0-2 39q-7.49 36.236-44.5 39-36.999-2.752-44.5-39-1-33 0-66 3.18-9.433 12.5-12"/></svg>
