<svg
    xmlns="http://www.w3.org/2000/svg"
    width="24"
    height="24"
    viewBox="0 0 512 512"
    style="shape-rendering:geometricPrecision;text-rendering:geometricPrecision;image-rendering:optimizeQuality;fill-rule:evenodd;clip-rule:evenodd"
><path
        style="opacity:.964"
        d="M252.5 25.5q4.653-.52 8.5 2 15.063 39.667 57.5 35.5a125.3 125.3 0 0 0 24-9.5q3.618-.141 5.5 3a171.4 171.4 0 0 0-1 27q9.664 41.654 52.5 44.5 4.274 3.839 2.5 9.5-24.227 17.955-21.5 48 17.008-.25 34 .5 18.77 4.77 26.5 22.5a20836 20836 0 0 1 44 217 298.6 298.6 0 0 1-1 48q-4.911 7.912-13.5 11.5a46202 46202 0 0 1-430 0q-8.554-3.548-13.5-11.5a298.6 298.6 0 0 1-1-48 20828 20828 0 0 1 44-217q7.73-17.73 26.5-22.5 16.993-.75 34-.5 2.73-30.04-21.5-48-1.774-5.661 2.5-9.5 42.162-2.67 52.5-43.5a76.7 76.7 0 0 0-1.5-24q.127-9.077 9-6.5 42.225 24.626 72.5-13.5a114 114 0 0 0 6-13q1.492-.85 2.5-2m2 22q8.632 9.88 19 18.5 27.928 17.024 59 6.5 1.84 50.073 49 66.5-16.52 19.81-14 45.5a290 290 0 0 1-34 1q1.684-53.009-45-77.5-51.88-20.124-91.5 18.5-21.873 25.369-19.5 59h-34q2.641-26.19-14-46.5 47.098-16.379 49-66.5 43.373 13.97 73.5-20a19.2 19.2 0 0 0 2.5-5m0 66q64.887 6.883 66 72h-130q.864-63.856 64-72m-149 84h55a2919 2919 0 0 0-5 48h-80q2.65-14 5.5-28 5.843-18.112 24.5-20m68 0h76v48h-81a2919 2919 0 0 0 5-48m88 0h76a2919 2919 0 0 0 5 48h-81zm89 0q27.505-.25 55 .5 16.888 1.059 23.5 16.5a512 512 0 0 1 6.5 31h-80a2919 2919 0 0 0-5-48m-278 60h82a2919 2919 0 0 0-5 48h-86a1520 1520 0 0 0 9-48m95 0h82v48h-87a2919 2919 0 0 0 5-48m94 0h82a2919 2919 0 0 0 5 48h-87zm95 0h82a1522 1522 0 0 0 9 48h-86a2919 2919 0 0 0-5-48m-296 60h88a2919 2919 0 0 0-5 48h-92a1520 1520 0 0 0 9-48m101 0h88v48h-93a2919 2919 0 0 0 5-48m100 0h88a2919 2919 0 0 0 5 48h-93zm101 0h88a1522 1522 0 0 0 9 48h-92a2919 2919 0 0 0-5-48m-314 60h94a2919 2919 0 0 0-5 48h-98a1520 1520 0 0 0 9-48m107 0h94v48h-99a2919 2919 0 0 0 5-48m106 0h94a2919 2919 0 0 0 5 48h-99zm107 0h94a1522 1522 0 0 0 9 48h-98a2919 2919 0 0 0-5-48m-331 60h436a168 168 0 0 1-1.5 30q-3.077 4.58-8.5 5.5-208 1-416 0-5.908-.32-8.5-5.5a168 168 0 0 1-1.5-30"
    /></svg>
